# xmcd
#
# Track frame offsets: 
#        150
#        13851
#        26461
#        39321
#        57985
#        71040
#        84391
#        96417
#        108877
#        121185
#        134250
#        145293
#        159088
#        174312
#        186350
#        198841
#        211904
#        225602
#
# Disc length: 3172 seconds
#
# Revision: 2
# Processed by: cddbd v1.5.2PL0 Copyright (c) Steve Scherf et al.
# Submitted via: ExactAudioCopy v0.99pb4
#
DISCID=ec0c6212
DTITLE=Various Artist - Country Music
DYEAR=2005
DGENRE=Country
TTITLE0=Jimmy Rodgers - The Soldier's Sweetheart
TTITLE1=Jimmy Rodgers - Jimmie's Texas Blues
TTITLE2=Bob Wills - Fan It
TTITLE3=Bob Wills - A Little Bit Of Boogie
TTITLE4=Bill Monroe - I'm Going Back To Old Kentucky
TTITLE5=Bill Monroe - Bluegrass Stomp
TTITLE6=Hank Williams - Move It On Over
TTITLE7=Hank Williams - I'm Long Gone Daddy
TTITLE8=Moon Mullican - Rockin' Rollin' Mama
TTITLE9=Moon Mullican - Shoot The Moon
TTITLE10=Delmore Brothers - I'm Mississipi Bound
TTITLE11=Delmore Brothers - Will You Be Lonesome Too
TTITLE12=Carter Family - The Wandering Boy
TTITLE13=Carter Family - Black Jack David
TTITLE14=Roy Accuf - Yes Sir That's My Baby
TTITLE15=Roy Accuf - Sad Memories
TTITLE16=Maddox Brothers and Rose - Midnight Train
TTITLE17=Maddox Brothers and Rose - Careless Driver
EXTD=
EXTT0=
EXTT1=
EXTT2=
EXTT3=
EXTT4=
EXTT5=
EXTT6=
EXTT7=
EXTT8=
EXTT9=
EXTT10=
EXTT11=
EXTT12=
EXTT13=
EXTT14=
EXTT15=
EXTT16=
EXTT17=
PLAYORDER=
